<svg width="182" height="61" viewBox="0 0 182 61" fill="none" xmlns="http://www.w3.org/2000/svg">
<g clip-path="url(#clip0_48_188)">
<path d="M167.507 0.00019825H14.5015C13.9438 0.00019825 13.3928 0.00019825 12.8365 0.00324825C12.3709 0.00629825 11.909 0.0151585 11.4389 0.0226157C10.4176 0.034666 9.39871 0.124755 8.39109 0.292098C7.38488 0.463086 6.4102 0.785445 5.5 1.24827C4.59091 1.71502 3.76025 2.3215 3.03815 3.04573C2.31227 3.76792 1.70718 4.60267 1.24617 5.51789C0.783885 6.43129 0.463335 7.41008 0.295592 8.42046C0.126253 9.42956 0.0351309 10.4503 0.023042 11.4735C0.00892783 11.9411 0.00743732 12.4102 0 12.8778V48.1271C0.00743732 48.6006 0.00892783 49.0593 0.023042 49.533C0.0351346 50.5561 0.126257 51.5768 0.295592 52.5859C0.462872 53.5968 0.783441 54.5762 1.24617 55.4899C1.70697 56.4022 2.31214 57.2335 3.03815 57.9517C3.75751 58.6792 4.58871 59.2861 5.5 59.7492C6.41019 60.2133 7.38477 60.5376 8.39109 60.7112C9.39888 60.8772 10.4177 60.9673 11.4389 60.9808C11.909 60.9912 12.3709 60.9972 12.8365 60.9972C13.3928 61.0002 13.9438 61.0002 14.5015 61.0002H167.507C168.053 61.0002 168.609 61.0002 169.155 60.9972C169.619 60.9972 170.094 60.9912 170.557 60.9808C171.577 60.9681 172.594 60.8779 173.599 60.7112C174.609 60.5364 175.587 60.2122 176.502 59.7492C177.412 59.2858 178.242 58.6789 178.961 57.9517C179.685 57.2307 180.292 56.4 180.758 55.4899C181.218 54.5755 181.535 53.5962 181.7 52.5859C181.87 51.5767 181.964 50.5562 181.982 49.533C181.988 49.0593 181.988 48.6006 181.988 48.1271C182 47.573 182 47.022 182 46.459V14.5428C182 13.9843 182 13.4303 181.988 12.8778C181.988 12.4102 181.988 11.9411 181.982 11.4734C181.964 10.4501 181.87 9.42963 181.7 8.42039C181.535 7.4106 181.217 6.43189 180.758 5.51783C179.819 3.68337 178.331 2.19014 176.502 1.24814C175.587 0.786438 174.609 0.464165 173.599 0.291961C172.594 0.12388 171.577 0.0337601 170.557 0.0224022C170.094 0.0149602 169.619 0.00602375 169.155 0.00305C168.609 0 168.053 0 167.507 0V0.00019825Z" fill="#A6A6A6"/>
<path d="M12.8439 59.6657C12.3805 59.6657 11.9283 59.6598 11.4686 59.6494C10.5161 59.637 9.56593 59.5538 8.62575 59.4007C7.74907 59.2493 6.89981 58.9677 6.10597 58.5651C5.31941 58.1659 4.60201 57.6425 3.98124 57.0148C3.35149 56.3946 2.82719 55.6752 2.42912 54.8852C2.02667 54.09 1.74815 53.2377 1.60326 52.3579C1.44679 51.4126 1.36214 50.4567 1.35003 49.4986C1.34038 49.1769 1.32776 48.1061 1.32776 48.1061V12.8777C1.32776 12.8777 1.3412 11.8233 1.3501 11.5135C1.3617 10.5569 1.44586 9.60249 1.60186 8.65864C1.74701 7.77645 2.02575 6.92169 2.42842 6.12393C2.82502 5.33446 3.34641 4.61453 3.97237 3.99206C4.59763 3.36367 5.31733 2.83752 6.10523 2.43279C6.89724 2.03154 7.7449 1.75191 8.6198 1.60328C9.56307 1.4486 10.5166 1.36497 11.4723 1.35309L12.8447 1.33447H169.148L170.537 1.35384C171.484 1.36512 172.428 1.44801 173.363 1.60179C174.247 1.75228 175.103 2.03386 175.904 2.43726C177.483 3.2529 178.767 4.54332 179.577 6.12766C179.974 6.9199 180.248 7.7677 180.391 8.64226C180.549 9.59386 180.638 10.5557 180.656 11.5203C180.66 11.9521 180.66 12.416 180.66 12.8777C180.672 13.4496 180.672 13.9939 180.672 14.5427V46.4589C180.672 47.013 180.672 47.5536 180.66 48.0986C180.66 48.5945 180.66 49.0488 180.654 49.5164C180.637 50.4637 180.55 51.4084 180.394 52.343C180.252 53.2291 179.975 54.0881 179.573 54.8897C179.172 55.6712 178.651 56.3843 178.028 57.0029C177.407 57.6339 176.688 58.1605 175.9 58.5622C175.101 58.9679 174.246 59.2505 173.363 59.4007C172.423 59.5546 171.473 59.6378 170.52 59.6494C170.075 59.6598 169.608 59.6657 169.155 59.6657L167.507 59.6688L12.8439 59.6657Z" fill="black"/>
<path d="M64.3386 41.3882H57.1395L55.4106 46.5068H52.3613L59.1802 27.5693H62.3483L69.1672 46.5068H66.066L64.3386 41.3882ZM57.8851 39.0262H63.5916L60.7785 30.7191H60.6997L57.8851 39.0262Z" fill="white"/>
<path d="M83.8938 39.604C83.8938 43.8945 81.6035 46.6511 78.1473 46.6511C77.2718 46.697 76.401 46.4948 75.6348 46.0676C74.8686 45.6404 74.2378 45.0055 73.8147 44.2355H73.7493V51.0742H70.9229V32.6997H73.6588V34.9962H73.7108C74.1533 34.2299 74.7947 33.5983 75.5668 33.1685C76.3388 32.7386 77.2127 32.5267 78.0953 32.5553C81.5901 32.5553 83.8938 35.3253 83.8938 39.604ZM80.9886 39.604C80.9886 36.8086 79.5479 34.9709 77.3497 34.9709C75.1901 34.9709 73.7375 36.8473 73.7375 39.604C73.7375 42.3859 75.1901 44.2489 77.3497 44.2489C79.5479 44.2489 80.9886 42.4246 80.9886 39.604Z" fill="white"/>
<path d="M99.0496 39.6039C99.0496 43.8945 96.7593 46.6511 93.3031 46.6511C92.4275 46.697 91.5568 46.4948 90.7906 46.0676C90.0243 45.6404 89.3936 45.0055 88.9705 44.2355H88.9051V51.0742H86.0786V32.6997H88.8145V34.9962H88.8665C89.309 34.2299 89.9504 33.5983 90.7225 33.1685C91.4945 32.7386 92.3684 32.5267 93.251 32.5553C96.7459 32.5553 99.0496 35.3253 99.0496 39.6039ZM96.1444 39.6039C96.1444 36.8086 94.7037 34.9709 92.5054 34.9709C90.3459 34.9709 88.8932 36.8473 88.8932 39.6039C88.8932 42.3859 90.3459 44.2489 92.5054 44.2489C94.7037 44.2489 96.1444 42.4246 96.1444 39.6039H96.1444Z" fill="white"/>
<path d="M109.066 41.2302C109.276 43.1081 111.095 44.3412 113.581 44.3412C115.964 44.3412 117.678 43.1081 117.678 41.4148C117.678 39.9449 116.644 39.0648 114.196 38.4616L111.749 37.8703C108.281 37.0304 106.67 35.4041 106.67 32.7652C106.67 29.4977 109.51 27.2534 113.543 27.2534C117.534 27.2534 120.27 29.4977 120.362 32.7652H117.509C117.338 30.8753 115.78 29.7345 113.503 29.7345C111.226 29.7345 109.668 30.8887 109.668 32.5686C109.668 33.9074 110.663 34.6953 113.097 35.2983L115.178 35.8106C119.053 36.7295 120.663 38.2903 120.663 41.0603C120.663 44.6032 117.849 46.8222 113.372 46.8222C109.184 46.8222 106.356 44.6553 106.173 41.23L109.066 41.2302Z" fill="white"/>
<path d="M126.763 29.4321V32.6996H129.382V34.9439H126.763V42.5555C126.763 43.7379 127.288 44.289 128.439 44.289C128.75 44.2835 129.06 44.2616 129.369 44.2234V46.4543C128.851 46.5513 128.325 46.5952 127.799 46.5854C125.011 46.5854 123.924 45.5354 123.924 42.8577V34.9439H121.921V32.6996H123.923V29.4321H126.763Z" fill="white"/>
<path d="M130.898 39.6038C130.898 35.2596 133.45 32.5298 137.429 32.5298C141.422 32.5298 143.961 35.2595 143.961 39.6038C143.961 43.9598 141.435 46.6777 137.429 46.6777C133.425 46.6777 130.898 43.9598 130.898 39.6038ZM141.081 39.6038C141.081 36.6238 139.719 34.8649 137.429 34.8649C135.139 34.8649 133.778 36.6372 133.778 39.6038C133.778 42.5957 135.139 44.3411 137.429 44.3411C139.719 44.3411 141.081 42.5957 141.081 39.6038H141.081Z" fill="white"/>
<path d="M146.292 32.6996H148.988V35.0496H149.053C149.235 34.3157 149.664 33.667 150.267 33.2128C150.871 32.7585 151.611 32.5263 152.365 32.5551C152.691 32.554 153.016 32.5895 153.334 32.6609V35.3118C152.922 35.1858 152.493 35.1279 152.064 35.1405C151.653 35.1238 151.244 35.1964 150.864 35.3533C150.484 35.5102 150.142 35.7477 149.862 36.0495C149.582 36.3513 149.371 36.7102 149.243 37.1016C149.114 37.493 149.072 37.9077 149.118 38.3171V46.5065H146.292L146.292 32.6996Z" fill="white"/>
<path d="M166.365 42.4512C165.985 44.9576 163.551 46.6777 160.436 46.6777C156.43 46.6777 153.944 43.9866 153.944 39.6693C153.944 35.3385 156.444 32.5298 160.317 32.5298C164.127 32.5298 166.523 35.1538 166.523 39.3402V40.3112H156.797V40.4824C156.752 40.9905 156.816 41.5024 156.983 41.9841C157.151 42.4657 157.419 42.9061 157.769 43.276C158.119 43.6459 158.544 43.9368 159.015 44.1294C159.486 44.3221 159.993 44.412 160.501 44.3932C161.169 44.456 161.84 44.3008 162.413 43.9509C162.986 43.601 163.431 43.0751 163.681 42.4512L166.365 42.4512ZM156.811 38.3304H163.695C163.72 37.8736 163.651 37.4163 163.492 36.9875C163.333 36.5587 163.087 36.1674 162.77 35.8384C162.453 35.5094 162.071 35.2496 161.649 35.0754C161.227 34.9012 160.774 34.8164 160.317 34.8262C159.857 34.8235 159.401 34.9121 158.975 35.0871C158.549 35.2621 158.162 35.5199 157.836 35.8457C157.51 36.1715 157.251 36.5588 157.075 36.9853C156.899 37.4118 156.809 37.8689 156.811 38.3305V38.3304Z" fill="white"/>
<path d="M57.5308 13.3145C58.1234 13.2719 58.718 13.3616 59.2718 13.5773C59.8256 13.793 60.3247 14.1293 60.7332 14.5618C61.1417 14.9943 61.4494 15.5123 61.634 16.0785C61.8187 16.6447 61.8757 17.2449 61.801 17.8359C61.801 20.7429 60.234 22.414 57.5308 22.414H54.2528V13.3145H57.5308ZM55.6623 21.1271H57.3734C57.7968 21.1525 58.2205 21.0829 58.6138 20.9233C59.007 20.7638 59.3598 20.5183 59.6465 20.2049C59.9331 19.8914 60.1465 19.5177 60.271 19.1111C60.3955 18.7045 60.428 18.2752 60.3662 17.8545C60.4235 17.4353 60.3877 17.0087 60.2613 16.6051C60.1349 16.2015 59.921 15.8309 59.635 15.5199C59.3489 15.2089 58.9979 14.9652 58.6069 14.8062C58.2159 14.6473 57.7946 14.577 57.3734 14.6004H55.6623V21.1271Z" fill="white"/>
<path d="M63.3932 18.9775C63.3502 18.5263 63.4016 18.0709 63.5444 17.6408C63.6871 17.2106 63.9179 16.8151 64.222 16.4797C64.5261 16.1442 64.8968 15.8761 65.3102 15.6927C65.7237 15.5093 66.1708 15.4146 66.6229 15.4146C67.0751 15.4146 67.5222 15.5093 67.9357 15.6927C68.3491 15.8761 68.7198 16.1442 69.0239 16.4797C69.328 16.8151 69.5588 17.2106 69.7015 17.6408C69.8443 18.0709 69.8957 18.5263 69.8527 18.9775C69.8966 19.4293 69.8457 19.8852 69.7033 20.3161C69.561 20.7469 69.3303 21.1431 69.0261 21.4793C68.722 21.8154 68.351 22.084 67.9371 22.2678C67.5233 22.4516 67.0756 22.5466 66.6229 22.5466C66.1703 22.5466 65.7226 22.4516 65.3087 22.2678C64.8949 22.084 64.5239 21.8154 64.2197 21.4793C63.9156 21.1431 63.6849 20.7469 63.5426 20.3161C63.4002 19.8852 63.3493 19.4293 63.3932 18.9775ZM68.4624 18.9775C68.4624 17.489 67.7956 16.6186 66.6252 16.6186C65.4503 16.6186 64.7894 17.489 64.7894 18.9775C64.7894 20.478 65.4504 21.3417 66.6252 21.3417C67.7956 21.3417 68.4625 20.472 68.4625 18.9775H68.4624Z" fill="white"/>
<path d="M78.439 22.4138H77.037L75.6215 17.3563H75.5146L74.105 22.4138H72.7163L70.8285 15.5469H72.1994L73.4262 20.7868H73.5273L74.9353 15.5469H76.2319L77.64 20.7868H77.7469L78.9678 15.5469H80.3194L78.439 22.4138Z" fill="white"/>
<path d="M81.9072 15.547H83.2083V16.6379H83.3093C83.4807 16.2461 83.7697 15.9177 84.136 15.6984C84.5023 15.4791 84.9278 15.3798 85.3531 15.4145C85.6863 15.3894 86.0209 15.4397 86.3321 15.5619C86.6433 15.684 86.923 15.8748 87.1507 16.1201C87.3784 16.3654 87.5481 16.6589 87.6472 16.9789C87.7464 17.2988 87.7725 17.6371 87.7236 17.9685V22.4139H86.372V18.3089C86.372 17.2053 85.8937 16.6565 84.8941 16.6565C84.6679 16.646 84.442 16.6846 84.232 16.7697C84.0221 16.8549 83.8329 16.9845 83.6776 17.1498C83.5223 17.3151 83.4045 17.5121 83.3322 17.7273C83.2599 17.9425 83.2349 18.1709 83.2588 18.3967V22.414H81.9072L81.9072 15.547Z" fill="white"/>
<path d="M89.8772 12.8662H91.2288V22.4138H89.8772V12.8662Z" fill="white"/>
<path d="M93.1076 18.9772C93.0646 18.5259 93.1161 18.0705 93.2589 17.6403C93.4017 17.2102 93.6325 16.8147 93.9366 16.4792C94.2408 16.1437 94.6115 15.8757 95.025 15.6922C95.4384 15.5088 95.8856 15.4141 96.3378 15.4141C96.7899 15.4141 97.2371 15.5088 97.6506 15.6922C98.0641 15.8757 98.4348 16.1437 98.7389 16.4792C99.043 16.8147 99.2738 17.2102 99.4166 17.6403C99.5594 18.0705 99.6109 18.5259 99.5679 18.9772C99.6117 19.4289 99.5608 19.8849 99.4184 20.3157C99.276 20.7466 99.0453 21.1428 98.7411 21.4789C98.4369 21.815 98.0659 22.0836 97.652 22.2674C97.2381 22.4512 96.7904 22.5462 96.3378 22.5462C95.8851 22.5462 95.4374 22.4512 95.0235 22.2674C94.6096 22.0836 94.2387 21.815 93.9344 21.4789C93.6302 21.1428 93.3995 20.7466 93.2571 20.3157C93.1148 19.8849 93.0638 19.4289 93.1076 18.9772ZM98.1769 18.9772C98.1769 17.4887 97.51 16.6182 96.3396 16.6182C95.1648 16.6182 94.5039 17.4887 94.5039 18.9772C94.5039 20.4776 95.1648 21.3414 96.3396 21.3414C97.51 21.3414 98.1769 20.4716 98.1769 18.9772H98.1769Z" fill="white"/>
<path d="M100.991 20.4721C100.991 19.236 101.909 18.5234 103.538 18.4221L105.393 18.3149V17.7222C105.393 16.9969 104.915 16.5873 103.991 16.5873C103.236 16.5873 102.714 16.8651 102.564 17.3506H101.255C101.393 16.1711 102.5 15.4146 104.053 15.4146C105.77 15.4146 106.739 16.2716 106.739 17.7222V22.4141H105.438V21.449H105.331C105.114 21.7952 104.809 22.0774 104.447 22.2668C104.086 22.4562 103.681 22.5461 103.274 22.5272C102.986 22.5572 102.696 22.5264 102.421 22.4369C102.146 22.3474 101.892 22.2011 101.677 22.0075C101.462 21.8139 101.29 21.5772 101.172 21.3127C101.054 21.0483 100.992 20.7619 100.991 20.4721ZM105.393 19.8853V19.3112L103.721 19.4184C102.778 19.4817 102.35 19.8034 102.35 20.4088C102.35 21.0268 102.884 21.3865 103.62 21.3865C103.835 21.4083 104.053 21.3865 104.26 21.3223C104.466 21.2581 104.658 21.1529 104.824 21.0128C104.989 20.8728 105.125 20.7008 105.223 20.5071C105.321 20.3134 105.378 20.1019 105.393 19.8853Z" fill="white"/>
<path d="M108.515 18.9774C108.515 16.8076 109.628 15.433 111.358 15.433C111.786 15.4132 112.211 15.516 112.583 15.7293C112.955 15.9427 113.258 16.2577 113.458 16.6377H113.559V12.8662H114.911V22.4138H113.616V21.3289H113.509C113.293 21.7063 112.979 22.0175 112.6 22.2287C112.221 22.4399 111.791 22.543 111.358 22.527C109.616 22.5271 108.515 21.1525 108.515 18.9774ZM109.911 18.9774C109.911 20.4339 110.596 21.3103 111.741 21.3103C112.88 21.3103 113.584 20.4213 113.584 18.9834C113.584 17.5522 112.873 16.6504 111.741 16.6504C110.603 16.6504 109.911 17.5328 109.911 18.9774H109.911Z" fill="white"/>
<path d="M120.503 18.9775C120.46 18.5263 120.511 18.0709 120.654 17.6408C120.797 17.2106 121.028 16.8151 121.332 16.4797C121.636 16.1442 122.006 15.8761 122.42 15.6927C122.833 15.5093 123.28 15.4146 123.733 15.4146C124.185 15.4146 124.632 15.5093 125.045 15.6927C125.459 15.8761 125.829 16.1442 126.134 16.4797C126.438 16.8151 126.668 17.2106 126.811 17.6408C126.954 18.0709 127.005 18.5263 126.962 18.9775C127.006 19.4293 126.955 19.8852 126.813 20.3161C126.671 20.7469 126.44 21.1431 126.136 21.4793C125.832 21.8154 125.461 22.084 125.047 22.2678C124.633 22.4516 124.185 22.5466 123.733 22.5466C123.28 22.5466 122.832 22.4516 122.418 22.2678C122.004 22.084 121.634 21.8154 121.329 21.4793C121.025 21.1431 120.795 20.7469 120.652 20.3161C120.51 19.8852 120.459 19.4293 120.503 18.9775ZM125.572 18.9775C125.572 17.489 124.905 16.6186 123.735 16.6186C122.56 16.6186 121.899 17.489 121.899 18.9775C121.899 20.478 122.56 21.3417 123.735 21.3417C124.905 21.3417 125.572 20.472 125.572 18.9775Z" fill="white"/>
<path d="M128.776 15.547H130.077V16.6379H130.178C130.349 16.2461 130.638 15.9177 131.005 15.6984C131.371 15.4791 131.796 15.3798 132.222 15.4145C132.555 15.3894 132.89 15.4397 133.201 15.5619C133.512 15.684 133.792 15.8748 134.019 16.1201C134.247 16.3654 134.417 16.6589 134.516 16.9789C134.615 17.2988 134.641 17.6371 134.592 17.9685V22.4139H133.241V18.3089C133.241 17.2053 132.762 16.6565 131.763 16.6565C131.537 16.646 131.311 16.6846 131.101 16.7697C130.891 16.8549 130.702 16.9845 130.546 17.1498C130.391 17.3151 130.273 17.5121 130.201 17.7273C130.129 17.9425 130.104 18.1709 130.127 18.3967V22.414H128.776V15.547Z" fill="white"/>
<path d="M142.229 13.8374V15.5783H143.713V16.7199H142.229V20.2509C142.229 20.9702 142.525 21.2852 143.198 21.2852C143.37 21.2846 143.542 21.2742 143.713 21.2539V22.3828C143.471 22.4263 143.225 22.4495 142.978 22.452C141.475 22.452 140.876 21.9218 140.876 20.5979V16.7198H139.789V15.5783H140.876V13.8374H142.229Z" fill="white"/>
<path d="M145.56 12.8662H146.899V16.6504H147.006C147.186 16.255 147.483 15.9247 147.856 15.7045C148.23 15.4844 148.662 15.3851 149.094 15.4203C149.426 15.4022 149.757 15.4577 150.065 15.5828C150.373 15.7079 150.649 15.8996 150.874 16.1441C151.1 16.3886 151.268 16.68 151.368 16.9974C151.468 17.3148 151.497 17.6504 151.453 17.9803V22.4139H150.1V18.3147C150.1 17.2178 149.591 16.6623 148.636 16.6623C148.403 16.6432 148.17 16.6752 147.951 16.7561C147.732 16.837 147.534 16.9649 147.37 17.1307C147.205 17.2965 147.079 17.4963 147 17.7162C146.921 17.936 146.891 18.1705 146.911 18.4033V22.4138H145.56L145.56 12.8662Z" fill="white"/>
<path d="M159.334 20.5596C159.15 21.1872 158.753 21.73 158.21 22.0932C157.668 22.4564 157.015 22.6167 156.366 22.5462C155.915 22.5582 155.467 22.4715 155.052 22.2923C154.638 22.113 154.267 21.8455 153.966 21.5083C153.665 21.1711 153.441 20.7722 153.309 20.3394C153.177 19.9065 153.141 19.4501 153.203 19.0018C153.143 18.5521 153.18 18.0947 153.311 17.6606C153.443 17.2265 153.666 16.8257 153.965 16.4855C154.265 16.1454 154.633 15.8736 155.047 15.6888C155.46 15.504 155.908 15.4103 156.36 15.4142C158.266 15.4142 159.416 16.7196 159.416 18.8759V19.3488H154.58V19.4248C154.558 19.6768 154.59 19.9304 154.672 20.1695C154.755 20.4085 154.886 20.6277 155.058 20.8129C155.229 20.9981 155.438 21.1453 155.67 21.245C155.901 21.3448 156.151 21.3948 156.404 21.392C156.727 21.4309 157.054 21.3726 157.345 21.2243C157.635 21.0761 157.874 20.8447 158.033 20.5595L159.334 20.5596ZM154.58 18.3465H158.039C158.056 18.1161 158.025 17.8846 157.947 17.6669C157.87 17.4493 157.748 17.2503 157.589 17.0828C157.43 16.9152 157.238 16.7828 157.025 16.6941C156.812 16.6054 156.583 16.5623 156.353 16.5676C156.119 16.5647 155.887 16.6087 155.671 16.697C155.454 16.7854 155.257 16.9163 155.092 17.0821C154.927 17.2479 154.796 17.4452 154.708 17.6624C154.62 17.8795 154.577 18.1121 154.58 18.3465H154.58Z" fill="white"/>
<path d="M35.5511 31.5491C35.5675 30.2842 35.9053 29.0441 36.5333 27.9439C37.1612 26.8438 38.0588 25.9195 39.1425 25.257C38.454 24.2793 37.5458 23.4747 36.4899 22.907C35.4341 22.3394 34.2597 22.0245 33.06 21.9871C30.5008 21.72 28.0198 23.5099 26.7157 23.5099C25.3864 23.5099 23.3785 22.0137 21.2164 22.0579C19.8178 22.1028 18.4548 22.5072 17.2602 23.2317C16.0656 23.9562 15.08 24.976 14.3996 26.1918C11.4522 31.2661 13.6507 38.7236 16.4741 42.8253C17.8867 44.8338 19.5376 47.0773 21.6978 46.9977C23.8117 46.9106 24.6012 45.6574 27.1528 45.6574C29.6807 45.6574 30.4215 46.9977 32.6255 46.9472C34.8938 46.9105 36.3229 44.9297 37.6859 42.9023C38.7009 41.4711 39.4819 39.8894 40 38.2158C38.6822 37.6615 37.5576 36.7338 36.7665 35.5483C35.9753 34.3628 35.5526 32.9719 35.5511 31.5491Z" fill="white"/>
<path d="M31.3881 19.2898C32.6248 17.8135 33.2341 15.9159 33.0866 14C31.1971 14.1973 29.4517 15.0953 28.1982 16.515C27.5854 17.2086 27.116 18.0155 26.8169 18.8895C26.5178 19.7636 26.3949 20.6877 26.4552 21.609C27.4003 21.6187 28.3353 21.415 29.1897 21.0132C30.0442 20.6115 30.7958 20.0222 31.3881 19.2898Z" fill="white"/>
</g>
<defs>
<clipPath id="clip0_48_188">
<rect width="182" height="61" fill="white"/>
</clipPath>
</defs>
</svg>
