<svg width="1436" height="845" viewBox="0 0 1436 845" fill="none" xmlns="http://www.w3.org/2000/svg">
<mask id="mask0_2049_1023" style="mask-type:alpha" maskUnits="userSpaceOnUse" x="0" y="0" width="1440" height="845">
<rect width="1440" height="844.394" fill="#20888F" fill-opacity="0.6"/>
</mask>
<g mask="url(#mask0_2049_1023)">
<path d="M994.68 -63.3835L987.385 -58.4242L987.486 -55.2462L1003.41 -52.1693L1002.91 -64.0111L1009.37 -68.4441L1013.02 -61.4201L1007.12 -54.9425L1028.56 -34.8015L1025.99 -24.984L1035.27 -27.0892L1046.84 -24.5387L1044.18 -12.1505L1037.6 -11.3205L1036.93 -8.66881L1023.64 -4.01309L1019.64 -4.68109L1010.99 -8.00082L967.101 -33.9109L949.493 -54.7806L960.82 -53.8495L963.616 -46.6635L964.731 -54.8008L969.067 -59.578L962.765 -65.1244L964.001 -68.1202L973.667 -63.2823L976.524 -56.4L979.219 -61.2784L975.896 -68.8287L987.912 -62.918L994.315 -69.355L994.68 -63.3835ZM884.771 -77.9175L891.742 -78.6867L897.517 -72.3711L927.507 -75.954L943.292 -56.4405L933.829 -54.477L929.837 -47.8375H926.514L927.183 -39.1941L916.544 -43.8498L913.89 -37.2104L903.92 -39.8621L897.942 -29.2349L888.642 -27.2512L891.296 -38.5463L866.696 -53.1612L857.983 -62.2297L864.974 -70.2861L861.164 -78.2413L866.048 -85.5285L878.611 -88.8888L884.771 -77.9175ZM137.072 -128.928L136.221 -122.43L139.767 -118.038L151.439 -126.823L165.826 -119.738L168.115 -112.086L163.86 -105.002L173.688 -104.232L175.714 -95.0626L180.051 -94.5768L185.096 -83.0792L186.819 -71.1363L207.71 -61.2581L230.486 -39.3358L233.06 -30.7531L244.508 -31.3199L246.636 -24.2553L214.053 -16.9479L235.998 34.8722L247.305 32.2205L259.28 51.4911L267.933 53.4748L283.9 30.2165L311.175 40.8437L329.797 36.856L337.781 41.5117L345.765 37.524L355.066 54.1428L379.665 52.1591L390.972 58.7985L397.619 66.774L406.271 94.6678L402.279 111.266L419.564 119.242V137.844L423.556 146.488L430.202 151.144L425.542 165.09L432.188 172.398L429.534 180.373L424.873 185.697L414.903 189.017L400.942 190.353L316.484 181.062L291.884 187.701L291.216 200.332L298.206 216.647L326.332 237.861L338.976 257.132L357.598 269.763L378.206 275.087L402.806 299.661L409.453 300.329L420.76 310.288L430.06 309.62L435.39 314.944L431.398 319.599L440.05 326.239L444.042 336.198L478.632 362.776L489.27 382.047H495.917L509.878 392.006L543.13 389.354L553.444 382.33L561.489 369.415L560.151 327.555L549.513 316.927L538.875 277.738L528.237 267.779V257.82L541.529 247.193L538.206 222.619L542.198 217.963L550.182 218.631L561.489 225.271L574.133 221.283L576.788 214.643L602.056 227.922L611.357 237.882L612.695 248.509L631.317 253.832L635.308 262.476L651.924 260.492L675.207 264.48L689.837 251.849L697.152 252.517L711.114 239.885L719.766 237.234L722.421 229.258L751.013 223.935L767.649 215.959L776.301 206L779.624 187.397L775.633 170.131L766.332 156.852L754.356 128.29L761.144 114.384L774.315 99.7283L778.307 104.384L800.253 101.732L809.553 109.04H816.869L816.2 125.638L822.178 136.934L818.854 139.585L826.169 145.557L823.515 154.2L825.501 166.163L843.454 156.204L868.723 154.868L871.377 159.524L886.007 162.844L919.928 157.52L929.229 146.893L917.922 136.934L907.284 137.602L897.314 128.31L899.32 124.991L894.66 118.351L884.69 116.367L870.729 107.724L859.422 108.392L849.452 99.7485L844.123 103.068L840.131 97.7446L843.454 91.1051L840.8 83.1297L846.129 78.474L870.729 71.8345L877.375 74.4863L892.005 73.1503L906.635 55.2156L903.312 49.2442L906.635 35.9653L923.272 14.043L920.617 8.71928L934.579 10.0552L936.565 7.40352L944.548 11.3912L946.534 20.0347L959.178 33.9816L961.833 47.9285L976.666 48.9406L975.794 49.2645L966.494 55.9039L956.524 55.2359L955.855 61.8754L964.508 66.5311L965.845 69.1828L960.516 71.8345L967.831 76.4902L969.817 79.81L967.162 83.1297L977.132 95.0928L995.754 93.1091L1001.08 99.0806L1012.39 98.4126L1023.7 86.4494L1041.65 83.1297L1043.64 90.4371L1046.96 84.4657H1050.95L1051.58 83.7167L1056.95 93.7569L1055.61 102.4L1036.99 110.376L1031.66 116.347L1027 130.962L1032.33 146.245L1038.31 152.884L1048.28 156.204L1048.95 168.167L1062.91 170.819L1073.55 179.462L1083.51 178.794L1088.84 174.139L1094.17 153.552L1104.14 140.921L1108.13 139.585L1112.13 143.573L1116.12 139.585L1120.78 142.237L1125.44 145.557L1120.78 156.184L1123.07 168.471L1115 181.203L1119.36 184.887L1116 196.952L1109.96 195.616V207.356L1101.22 209.036L1090.49 234.521L1080.41 231.161L1072.35 234.521L1070 245.25L1063.96 251.626L1054.23 254.986L1053.89 260.694L1038.79 267.739L1034.09 275.107L1038.79 293.204L1038.12 306.624L1044.16 322.373L1052.9 329.741L1048.86 334.761L1051.56 347.999L1039.48 357.048L1040.15 361.076L1021.69 365.772L1015.65 375.164L1002.91 380.873L987.122 393.605L984.771 403.989L977.051 409.698L969.999 425.122L964.629 428.482L947.507 466.032L949.857 476.092L944.143 480.444L938.773 493.176L921.326 484.796L914.619 488.156L899.847 507.609L900.86 514.977L911.255 519.329L914.619 526.03L912.937 530.058L925.683 542.466L973.343 541.798L978.712 552.183L995.166 561.717L1003.49 556.879L1014.58 560.239L1034.05 525.706L1038.08 526.05L1045.8 519.005L1070.3 521.677L1081.71 516.657L1087.75 520.018L1088.42 533.762L1096.46 537.122L1105.52 555.907L1110.22 554.227L1117.6 564.287L1085.38 588.092L1080.01 594.792L1081.02 597.808L1046.11 609.549L1026.64 602.505L1003.47 586.736L992.066 585.056L986.352 590.764L978.976 591.108L961.995 573.194L956.909 576.028L945.825 571.008L943.13 563.296L937.091 561.96L920.638 582.404L917.274 589.772L918.206 599.995L904.103 616.087L908.804 621.796L904.771 646.613L898.733 643.596L887.324 649.973L873.221 644.264L860.475 648.677L850.06 640.742L845.359 647.442L802.725 643.09L789.29 655.499L792.654 668.919L782.259 685.012L784.954 697.076L800.739 705.801L798.733 733.634L790.688 752.075L783.637 759.443L772.897 764.139L764.832 776.203L768.196 785.596L777.598 793.308L777.254 805.716L789.331 805.048L798.388 822.153L777.578 841.606L778.247 850.33L772.532 864.075L778.915 873.467L782.948 889.236L789.331 894.944L787.649 905.005L793.363 911.037L792.35 916.401L801.083 917.737L811.823 932.655L817.193 934.66L832.978 951.764L837.01 958.464L835.329 962.493L853.444 968.525L854.781 975.569L866.858 988.99L868.54 995.366L875.592 997.714L883.981 1007.43L883.636 1011.46L891.012 1016.48L889.472 1019.78L875.227 1024.27L852.897 997.633L844.305 998.706L840.536 988.706L827.446 985.103L827.791 974.658L807.406 959.395L796.848 957.068L792.917 947.615L786.007 946.117L778.591 938.627L760.07 933.647L761.752 923.486L754.356 921.117L748.338 908.932L747.669 895.794L736.504 886.483L727.507 898.77L708.966 885.714L698.125 883.851L684.893 900.146L678.956 893.73L653.464 880.37L676.139 888.73L661.752 877.617L672.857 876.888L674.64 873.042L678.834 874.074L704.143 862.678L681.246 813.246L615.511 773.248L616.524 763.471L610.405 751.73L601.144 744.281L584.711 741.204L582.137 727.5L557.72 681.713L566.089 664.466L564.731 646.127L548.622 631.35L522.907 632.342L499.26 609.61L493.586 607.343L489.655 610.257L464.63 577.263L452.938 566.716L446.048 553.62L421.063 531.657L412.35 516.414L398.429 513.277L393.222 507.893L384.954 494.33L382.259 476.173L356.443 457.732L345.886 442.834L331.074 433.624L329.291 422.308L318.125 402.997L298.369 400.71L294.498 378.322L276.2 378.727L272.735 370.731L264.306 363.343L262.077 353.708L244.488 338.708L233.08 320.207L227.062 290.248L225.866 268.548L228.318 262.496L225.623 256.929L198.855 247.557L197.295 239.825L204.812 241.505L212.513 237.578L205.988 229.36L205.765 217.68L202.563 215.473L206.494 203.085L201.206 188.308L170.385 171.71L163.516 157.682L165.096 155.071L173.283 155.293L172.452 147.136L178.409 146.427L170.871 127.926L152.979 118.999L146.859 101.672L135.917 97.0564L128.075 86.085L115.957 90.761L113.323 95.6596L102.482 97.2993L99.159 90.4574L89.7771 85.66L70 54.3857L72.229 49.892L83.1307 49.5883L92.2087 41.5319L81.5299 31.3298L77.9027 8.98241L81.7325 -11.7456L92.8369 -14.3366L92.2695 -28.6276L79.9899 -54.8413L91.54 -77.29L84.8936 -101.054L90.8308 -110.953L99.9696 -120.487L105.684 -119.455L110.101 -127.531L126.738 -124.353L126.616 -129.292L137.072 -128.928Z" fill="#7DE6F2" stroke="white" stroke-width="0.5"/>
<path d="M1179.79 19.1036L1192.88 11.8366L1200.92 16.0267L1208.82 13.8406L1222.24 22.4435L1228.01 22.3018L1230.59 31.6942L1234.74 33.516L1229.45 40.2769L1223.9 38.86L1227.16 45.1351L1221.59 52.5639L1213.57 52.3413L1212.96 63.9603L1206.37 67.9683L1214.96 68.5958L1216.83 72.6847L1208.2 76.3283L1216.04 88.251L1213.47 92.3804L1207.89 90.5181L1211.22 107.258L1200.27 112.683L1191.3 133.047L1192.37 136.772L1182.44 146.002L1183.29 153.148L1173.12 158.107L1169.76 165.556L1174.46 172.195L1166.94 184.118L1152.9 185.049L1149.74 194.3L1153.83 197.883L1158.77 214.967L1158.84 231.424L1146.72 241.323L1144.71 252.152L1149.15 254.581L1146.58 259.48L1148.44 264.783L1154.66 267.03L1153.55 276.564L1163.76 289.762L1169.31 291.888L1178.69 288.042L1182.18 297.353L1187.61 300.835L1200.96 294.479L1215.07 296.726L1216.34 305.065L1222.81 313.486L1221.29 319.255L1226.27 325.166L1226.56 335.51L1241.65 341.623L1245.18 352.533L1253.26 357.412L1263.09 350.246L1264.95 353.95L1261.49 363.14L1268.24 364.901L1273.59 378.788L1287.69 384.456L1293.75 394.556L1296.67 393.726L1298.63 384.597L1302.83 385.528L1303.94 393.22L1310 393.706L1307.14 400.548L1309.07 408.847L1291.22 416.256L1291.84 422.531L1285.4 425.567L1278.17 435.304L1248.08 434.373L1240.03 430.608L1235.31 433.462L1223.82 423.847L1219.28 424.231L1210.08 417.734L1197.23 416.539L1190.1 408.726L1186.13 409.779L1187.24 422.106L1193.63 433.766L1205.54 443.32L1206.66 450.121L1214.96 453.805L1216.2 464.493L1224.67 469.392L1235.73 485.363L1239.38 507.366L1256.16 516.151L1258.79 525.281L1272.82 537.122L1278.98 574.611L1274.66 578.761L1270.73 574.085L1267.14 577.101L1270.85 584.125L1268.26 592.242L1273.1 596.29L1269.57 599.873L1255.92 598.557L1243.86 605.177L1230.32 588.396L1218.59 593.841L1199.32 589.793L1192.88 593.537L1190.73 620.986L1180.62 616.553L1165.62 615.642L1152.88 625.176L1129.35 607.282L1119.71 606.594L1116.55 609.994L1113.47 606.25L1105.56 618.354L1094.38 622.14L1095.39 631.856L1100.68 625.196L1103.72 626.856L1105.4 652.037L1112.25 659.203L1116.38 657.462L1124.87 687.401L1141.81 712.845L1141.27 728.715L1126.94 731.67L1115.94 745.374L1107.41 737.176L1107.24 729.808L1097.96 725.395L1099.2 708.27L1094.66 707.744L1083.6 694.991L1061.63 700.153L1066.58 712.521L1046.8 718.108L1015.09 739.868L1014.54 744.889L1023.01 753.815L1003.74 780.576L1000.38 796.587L1016.95 842.699L1001.29 847.658L970.061 842.659L964.164 849.096L953.607 875.188L949.109 878.589L951.48 891.139L957.315 899.236L947.873 917.494L951.135 936.906L943.395 940.692L946.941 948.829L945.583 955.408L951.986 957.979L959.099 970.346L972.229 969.233L976.343 974.516L972.959 982.897L976.14 1002.55L955.431 1006.76L952.736 1010.87L966.718 1026.74L954.377 1028.5L947.407 1038.2L934.175 1040L915.411 1022.98L910.203 1014.09L890.993 1016.42L883.617 1011.4L883.962 1007.37L875.573 997.653L868.521 995.305L866.839 988.929L854.762 975.508L853.425 968.464L835.31 962.432L836.991 958.404L832.959 951.703L817.174 934.599L811.804 932.595L801.064 917.676L792.331 916.34L793.344 910.976L787.63 904.944L789.312 894.883L782.929 889.175L778.896 873.406L772.513 864.014L778.227 850.27L777.559 841.545L798.369 822.092L789.312 804.988L777.235 805.656L777.579 793.247L768.177 785.535L764.813 776.143L772.878 764.078L783.618 759.382L790.669 752.014L798.714 733.573L800.72 705.74L784.935 697.016L782.24 684.951L792.635 668.859L789.271 655.438L802.706 643.03L845.34 647.382L850.041 640.682L860.456 648.617L873.202 644.204L887.305 649.912L898.714 643.536L904.752 646.552L908.785 621.735L904.083 616.027L918.187 599.934L917.255 589.712L920.618 582.344L937.072 561.899L943.111 563.235L945.806 570.947L956.89 575.967L961.976 573.133L978.957 591.048L986.333 590.704L992.047 584.995L1003.46 586.675L1026.62 602.444L1046.09 609.488L1081 597.748L1079.99 594.732L1085.36 588.032L1117.58 564.227L1110.2 554.166L1105.5 555.846L1096.44 537.062L1088.4 533.701L1087.73 519.957L1081.69 516.597L1070.28 521.617L1045.79 518.945L1038.07 525.989L1034.03 525.645L1014.56 560.178L1003.48 556.818L995.147 561.656L978.693 552.122L973.324 541.738L925.664 542.406L912.918 529.997L914.6 525.969L911.236 519.269L900.841 514.917L899.828 507.548L914.6 488.096L921.307 484.735L938.754 493.116L944.124 480.383L949.838 476.031L947.488 465.971L964.61 428.422L969.98 425.061L977.032 409.637L984.752 403.929L987.103 393.544L1002.89 380.812L1015.63 375.104L1021.67 365.711L1040.13 361.015L1039.46 356.987L1051.54 347.939L1048.85 334.7L1052.88 329.68L1044.14 322.312L1038.11 306.563L1038.77 293.143L1034.07 275.046L1038.77 267.678L1053.87 260.634L1054.22 254.925L1063.94 251.565L1069.98 245.189L1072.33 234.461L1080.4 231.1L1090.47 234.461L1101.21 208.976L1109.94 207.296V195.555L1115.98 196.891L1119.34 184.827L1114.99 181.143L1123.05 168.41L1120.76 156.123L1125.42 145.496L1120.76 142.176L1116.1 139.525L1112.11 143.512L1108.12 139.525L1104.12 140.861L1094.15 153.492L1088.83 174.078L1083.5 178.734L1073.53 179.402L1062.89 170.758L1048.93 168.107L1048.26 156.143L1038.29 152.824L1032.31 146.184L1026.98 130.901L1031.64 116.286L1036.97 110.315L1055.59 102.34L1056.93 93.6962L1051.56 83.656L1054.26 80.4173V73.7778L1060.23 72.4418L1070.2 73.7778L1073.53 77.7655V74.4458L1081.51 77.0975L1088.83 72.4418L1095.47 53.1712L1104.12 49.1835L1110.1 57.1589L1116.08 49.1835L1108.76 45.8638L1108.4 38.9005L1133.14 34.6901L1139.73 26.7956L1149.27 23.4961L1168.32 8.03107L1175.01 9.14439L1179.79 19.1036ZM458.147 -130.264L459.707 -127.794L465.279 -130.223L470.062 -128.159L470.102 -132.774L466.232 -135.466L468.542 -138.644L472.736 -135.507L475.715 -125.608L479.2 -127.713L479.545 -133.138L484.428 -132.106L481.044 -122.734L489.231 -127.308L493.891 -116.6L534.601 -92.1072L556.141 -91.9655L564.611 -110.912L568.481 -105.305L575.938 -106.297L576.323 -100.791L581.814 -101.095L581.997 -94.7387L592.716 -88.3422L609.879 -86.8645L619.93 -98.2406L622.523 -91.9251L620.821 -83.5043L634.013 -87.492L631.419 -75.3264L637.437 -78.0591L646.07 -75.2455L651.865 -84.5974L653.648 -75.205L660.497 -78.1603L667.407 -74.2738L690.142 -86.8038L717.539 -65.2863L726.819 -63.4442L746.9 -46.542L761.956 -52.6147L775.087 -63.0799L773.891 -75.0633L784.286 -78.5045L790.001 -90.8927L796.465 -94.4756L801.247 -93.4432L806.252 -82.6541L810.223 -90.083L817.113 -90.002L822.219 -80.468L817.559 -74.7799L830.588 -63.5455L858.005 -62.1892L866.718 -53.1207L891.318 -38.5058L888.663 -27.2107L897.964 -29.1944L903.942 -39.8216L913.911 -37.1698L916.566 -43.8093L927.204 -39.1536L926.535 -47.797H929.859L933.85 -54.4365L943.313 -56.3999L949.494 -54.7198L967.103 -33.8501L1010.99 -7.94006L1018.57 -5.02518L1013.65 6.67482L1000.35 12.6463L998.349 19.2857L993.688 21.2695L994.357 26.5932L983.05 46.5318L976.606 48.8799L961.773 47.8678L959.119 33.9209L946.475 19.974L944.489 11.3305L936.505 7.34282L934.519 9.99455L920.558 8.65857L923.212 13.9823L906.576 35.9046L903.253 49.1835L906.576 55.155L891.946 73.0896L877.316 74.4256L870.669 71.7738L846.069 78.4133L840.74 83.069L843.395 91.0444L840.071 97.6839L844.063 103.008L849.393 99.6879L859.362 108.331L870.669 107.663L884.631 116.307L894.6 118.29L899.261 124.93L897.255 128.25L907.224 137.541L917.863 136.873L929.17 146.832L919.869 157.459L885.948 162.783L871.318 159.463L868.663 154.807L843.395 156.143L825.441 166.103L823.455 154.139L826.11 145.496L818.795 139.525L822.118 136.873L816.14 125.578L816.809 108.979H809.494L800.193 101.672L778.248 104.323L774.256 99.6676L761.085 114.323L754.296 128.229L766.272 156.791L775.573 170.07L779.565 187.337L776.242 205.939L767.589 215.898L750.953 223.874L722.361 229.198L719.707 237.173L711.054 239.825L697.093 252.456L689.778 251.788L675.148 264.419L651.865 260.431L635.249 262.415L631.257 253.772L612.635 248.448L611.298 237.821L601.997 227.862L576.728 214.583L574.074 221.222L561.429 225.21L550.122 218.57L542.139 217.902L538.147 222.558L541.47 247.132L528.177 257.759V267.719L538.815 277.678L549.454 316.867L560.092 327.494L561.429 369.355L553.385 382.269L543.071 389.293L509.818 391.945L495.857 381.986H489.211L478.572 362.715L443.983 336.137L439.991 326.178L431.338 319.539L435.33 314.883L430.001 309.559L420.7 310.227L409.393 300.268L402.747 299.6L378.147 275.026L357.539 269.702L338.917 257.071L326.272 237.801L298.147 216.587L291.156 200.271L291.825 187.64L316.424 181.001L400.882 190.292L414.844 188.956L424.813 185.636L429.474 180.313L432.129 172.337L425.482 165.03L430.143 151.083L423.496 146.427L419.504 137.784V119.181L402.22 111.206L406.212 94.607L397.559 66.7133L390.913 58.7378L379.606 52.0984L355.006 54.0821L345.705 37.4633L337.721 41.451L329.737 36.7953L311.115 40.783L283.841 30.1558L267.873 53.4141L259.221 51.4304L247.245 32.1598L235.938 34.8115L213.993 -17.0086L246.576 -24.316L244.449 -31.3806L248.887 -26.6641L273.425 -27.5548L274.277 -40.2871L282.463 -49.2747L284.104 -60.8937L288.947 -66.8449L286.414 -76.6017L307.873 -90.164L311.298 -107.856L316.911 -119.961L323.355 -125.608L345.178 -126.317L351.115 -129.414L365.543 -119.697L381.267 -114.232L392.838 -118.989L419.281 -108.868L428.38 -113.159L425.746 -122.875L429.737 -125.608L427.772 -129.778L439.666 -130.223L456.546 -150L463.517 -141.397L458.289 -136.154L458.147 -130.264Z" fill="#7DE6F2" stroke="white" stroke-width="0.5"/>
<path d="M1108.38 38.86L1108.74 45.8436L1116.06 49.1633L1110.06 57.1185L1104.08 49.1633L1095.43 53.1308L1088.78 72.4014L1081.47 77.0571L1073.49 74.4054V77.7251L1070.16 73.7374L1060.19 72.4014L1054.21 73.7374V80.3768L1050.89 84.3646H1046.9L1043.58 90.336L1041.57 83.0286L1023.62 86.3483L1012.31 98.3115L1001 98.9795L995.694 93.008L977.072 94.9917L967.082 83.0286L969.757 79.7089L967.751 76.3891L960.436 71.7334L965.765 69.0817L964.428 66.4299L955.796 61.7742L956.444 55.1348L966.434 55.8028L975.735 49.1633L983.05 46.4914L994.357 26.573L993.688 21.2493L998.349 19.2656L1000.33 12.6261L1013.65 6.63441L1018.57 -5.06559L1019.63 -4.66074L1023.62 -3.99276L1036.91 -8.64846L1037.58 -11.3002L1044.16 -12.1301L1050.51 -1.80659L1046.01 1.77629L1033.55 -1.1386L1039.95 8.09185L1037.34 14.7515L1056.06 28.0304L1062.54 36.5322L1108.38 38.86Z" fill="#7DE6F2" stroke="white" stroke-width="0.5"/>
<path fill-rule="evenodd" clip-rule="evenodd" d="M917.652 445.516C930.69 445.516 941.26 456.081 941.26 469.113C941.26 470.704 941.103 472.258 940.802 473.761C938.719 489.456 917.776 507.319 917.776 507.319C917.776 507.319 899.953 492.117 895.555 477.44C894.578 474.85 894.043 472.044 894.043 469.113C894.043 456.081 904.613 445.516 917.652 445.516Z" fill="#20888F"/>
<path d="M926.646 469.113C926.646 464.149 922.619 460.124 917.652 460.124C912.685 460.124 908.658 464.149 908.658 469.113C908.658 474.078 912.685 478.103 917.652 478.103C922.619 478.103 926.646 474.078 926.646 469.113Z" fill="white"/>
<path fill-rule="evenodd" clip-rule="evenodd" d="M502.82 18.4758C515.858 18.4758 526.428 29.0409 526.428 42.0736C526.428 43.6644 526.27 45.2184 525.97 46.7209C523.886 62.4162 502.944 80.2794 502.944 80.2794C502.944 80.2794 485.121 65.0777 480.723 50.3998C479.746 47.8106 479.211 45.0045 479.211 42.0736C479.211 29.0409 489.781 18.4758 502.82 18.4758Z" fill="#20888F"/>
<path d="M511.813 42.0736C511.813 37.1088 507.787 33.084 502.82 33.084C497.853 33.084 493.826 37.1088 493.826 42.0736C493.826 47.0384 497.853 51.0632 502.82 51.0632C507.787 51.0632 511.813 47.0384 511.813 42.0736Z" fill="white"/>
<path fill-rule="evenodd" clip-rule="evenodd" d="M1012.09 134.303C1025.12 134.303 1035.69 144.868 1035.69 157.901C1035.69 159.492 1035.54 161.046 1035.24 162.548C1033.15 178.244 1012.21 196.107 1012.21 196.107C1012.21 196.107 994.387 180.905 989.988 166.227C989.011 163.638 988.477 160.832 988.477 157.901C988.477 144.868 999.047 134.303 1012.09 134.303Z" fill="#20888F"/>
<path d="M1021.08 157.901C1021.08 152.936 1017.05 148.911 1012.09 148.911C1007.12 148.911 1003.09 152.936 1003.09 157.901C1003.09 162.866 1007.12 166.891 1012.09 166.891C1017.05 166.891 1021.08 162.866 1021.08 157.901Z" fill="white"/>
<path fill-rule="evenodd" clip-rule="evenodd" d="M731.034 699.399C744.072 699.399 754.642 709.964 754.642 722.997C754.642 724.588 754.484 726.142 754.184 727.645C752.101 743.34 731.158 761.203 731.158 761.203C731.158 761.203 713.335 746.001 708.937 731.323C707.96 728.734 707.425 725.928 707.425 722.997C707.425 709.964 717.995 699.399 731.034 699.399Z" fill="#20888F"/>
<path d="M740.027 722.997C740.027 718.032 736.001 714.007 731.034 714.007C726.067 714.007 722.04 718.032 722.04 722.997C722.04 727.962 726.067 731.987 731.034 731.987C736.001 731.987 740.027 727.962 740.027 722.997Z" fill="white"/>
<path fill-rule="evenodd" clip-rule="evenodd" d="M795.113 273.53C808.152 273.53 818.722 284.095 818.722 297.128C818.722 298.718 818.564 300.272 818.264 301.775C816.18 317.47 795.237 335.333 795.237 335.333C795.237 335.333 777.415 320.132 773.017 305.454C772.04 302.865 771.505 300.058 771.505 297.128C771.505 284.095 782.075 273.53 795.113 273.53Z" fill="#20888F"/>
<path d="M804.107 297.128C804.107 292.163 800.08 288.138 795.113 288.138C790.146 288.138 786.12 292.163 786.12 297.128C786.12 302.092 790.146 306.117 795.113 306.117C800.08 306.117 804.107 302.092 804.107 297.128Z" fill="white"/>
</g>
</svg>
