<svg width="201" height="60" viewBox="0 0 201 60" fill="none" xmlns="http://www.w3.org/2000/svg">
<g clip-path="url(#clip0_48_217)">
<path fill-rule="evenodd" clip-rule="evenodd" d="M193.523 60H7.47662C3.35594 60 0 56.6185 0 52.5V7.5C0 3.36658 3.35594 0 7.47662 0H193.523C197.64 0 201 3.36658 201 7.5V52.5C201 56.6185 197.64 60 193.523 60Z" fill="black"/>
<path fill-rule="evenodd" clip-rule="evenodd" d="M193.523 1.20075C196.98 1.20075 199.808 4.03242 199.808 7.5V52.5C199.808 55.9676 196.998 58.7993 193.523 58.7993H7.47662C4.02045 58.7993 1.19166 55.9676 1.19166 52.5V7.5C1.19166 4.03242 4.00188 1.20075 7.47662 1.20075H193.523ZM193.523 0H7.47662C3.35594 0 0 3.38155 0 7.5V52.5C0 56.6334 3.35594 60 7.47662 60H193.523C197.64 60 201 56.6334 201 52.5V7.5C201 3.38155 197.64 0 193.523 0Z" fill="#A6A6A6"/>
<path d="M103.227 33.184C99.6484 33.184 96.7314 35.9141 96.7314 39.6779C96.7314 43.4173 99.6484 46.1718 103.227 46.1718C106.806 46.1718 109.723 43.4173 109.723 39.6779C109.723 35.9141 106.806 33.184 103.227 33.184ZM103.227 43.6143C101.266 43.6143 99.5738 41.9912 99.5738 39.6779C99.5738 37.3403 101.266 35.7416 103.227 35.7416C105.189 35.7416 106.879 37.3403 106.879 39.6779C106.879 41.9897 105.189 43.6143 103.227 43.6143ZM89.0547 33.184C85.4758 33.184 82.5589 35.9141 82.5589 39.6779C82.5589 43.4173 85.4758 46.1718 89.0547 46.1718C92.6336 46.1718 95.5506 43.4173 95.5506 39.6779C95.5521 35.9141 92.6336 33.184 89.0547 33.184ZM89.0547 43.6143C87.0933 43.6143 85.4028 41.9912 85.4028 39.6779C85.4028 37.3403 87.0949 35.7416 89.0547 35.7416C91.0161 35.7416 92.7067 37.3403 92.7067 39.6779C92.7082 41.9897 91.0161 43.6143 89.0547 43.6143ZM72.198 35.1766V37.9312H78.7685C78.5722 39.481 78.0579 40.6124 77.2727 41.4003C76.3171 42.3592 74.8213 43.4173 72.198 43.4173C68.1535 43.4173 64.9915 40.1452 64.9915 36.0867C64.9915 32.0282 68.1535 28.756 72.198 28.756C74.3801 28.756 75.9732 29.6172 77.1494 30.7242L79.0865 28.7805C77.4446 27.2062 75.2626 26 72.198 26C66.6577 26 62 30.5257 62 36.0852C62 41.6446 66.6577 46.1703 72.198 46.1703C75.188 46.1703 77.4446 45.187 79.2097 43.341C81.0235 41.5209 81.5881 38.9618 81.5881 36.8959C81.5881 36.2562 81.5394 35.6653 81.4405 35.1736H72.198V35.1766ZM141.14 37.3158C140.602 35.8638 138.958 33.1825 135.6 33.1825C132.266 33.1825 129.497 35.8149 129.497 39.6764C129.497 43.3165 132.242 46.1703 135.92 46.1703C138.885 46.1703 140.602 44.3502 141.312 43.2921L139.106 41.8156C138.371 42.8982 137.365 43.6112 135.92 43.6112C134.473 43.6112 133.444 42.947 132.782 41.6431L141.436 38.0518L141.14 37.3158ZM132.315 39.481C132.242 36.9723 134.252 35.6927 135.698 35.6927C136.825 35.6927 137.781 36.2577 138.1 37.07L132.315 39.481ZM125.279 45.7779H128.123V26.6902H125.279V45.7779ZM120.621 34.6346H120.524C119.886 33.8727 118.661 33.1825 117.117 33.1825C113.88 33.1825 110.915 36.0363 110.915 39.7008C110.915 43.341 113.88 46.1703 117.117 46.1703C118.661 46.1703 119.886 45.4817 120.524 44.6938H120.621V45.6283C120.621 48.1125 119.297 49.4409 117.164 49.4409C115.423 49.4409 114.344 48.1858 113.903 47.1292L111.427 48.1629C112.138 49.8852 114.026 52 117.164 52C120.498 52 123.317 50.0318 123.317 45.2358V33.5765H120.621V34.6346ZM117.362 43.6143C115.4 43.6143 113.759 41.9668 113.759 39.7024C113.759 37.4151 115.4 35.7416 117.362 35.7416C119.299 35.7416 120.817 37.4136 120.817 39.7024C120.817 41.9652 119.299 43.6143 117.362 43.6143ZM154.461 26.6902H147.658V45.7779H150.495V38.5465H154.459C157.606 38.5465 160.7 36.2607 160.7 32.6191C160.7 28.9774 157.608 26.6902 154.461 26.6902ZM154.534 35.8897H150.495V29.347H154.534C156.657 29.347 157.862 31.1105 157.862 32.6191C157.862 34.0971 156.657 35.8897 154.534 35.8897ZM172.081 33.1489C170.026 33.1489 167.897 34.0574 167.016 36.0714L169.537 37.128C170.076 36.0714 171.079 35.7279 172.132 35.7279C173.6 35.7279 175.093 36.6119 175.117 38.1831V38.3801C174.603 38.0854 173.501 37.6426 172.156 37.6426C169.44 37.6426 166.674 39.1405 166.674 41.9408C166.674 44.4953 168.901 46.1398 171.397 46.1398C173.306 46.1398 174.358 45.2801 175.018 44.2739H175.116V45.7474H177.856V38.4289C177.856 35.0392 175.336 33.1489 172.081 33.1489ZM171.738 43.6097C170.808 43.6097 169.51 43.1425 169.51 41.9897C169.51 40.5162 171.126 39.9513 172.52 39.9513C173.767 39.9513 174.355 40.2215 175.114 40.5895C174.895 42.3576 173.378 43.6097 171.738 43.6097ZM187.841 33.5658L184.586 41.8416H184.489L181.112 33.5658H178.054L183.119 45.132L180.231 51.5664H183.192L191 33.5658H187.841ZM162.267 45.7779H165.106V26.6902H162.267V45.7779Z" fill="white"/>
<path d="M35.3266 30.5913L21.1306 44.9336C21.1319 44.9362 21.1319 44.9387 21.1333 44.9412C21.5679 46.4999 23.0626 47.646 24.8359 47.646C25.5453 47.646 26.2106 47.4632 26.7813 47.1433L26.8266 47.118L42.8053 38.3412L35.3266 30.5913Z" fill="#EB4335"/>
<path d="M49.688 28.1491L49.6747 28.1402L42.776 24.3325L35.004 30.916L42.8027 38.3385L49.6654 34.5701C50.868 33.952 51.684 32.745 51.684 31.3526C51.684 29.9704 50.8787 28.7685 49.688 28.1491Z" fill="#FABC13"/>
<path d="M21.1307 17.7124C21.0453 18.0119 21 18.3254 21 18.6516V43.9944C21 44.3206 21.044 44.6353 21.1307 44.9336L35.8147 30.9581L21.1307 17.7124Z" fill="#547DBF"/>
<path d="M35.4306 31.3223L42.7786 24.3301L26.8173 15.5217C26.2373 15.1904 25.5613 15 24.8359 15C23.0626 15 21.5666 16.1487 21.1306 17.7085V17.7123L35.4306 31.3223Z" fill="#30A851"/>
<path d="M71.3988 16.4256H67.0691V17.5071H70.3134C70.2255 18.3861 69.8756 19.0776 69.2905 19.5801C68.7039 20.0826 67.955 20.3346 67.0691 20.3346C66.0954 20.3346 65.272 19.9956 64.599 19.3161C63.938 18.6246 63.6 17.7711 63.6 16.7391C63.6 15.7086 63.938 14.8536 64.599 14.1621C65.272 13.4841 66.0954 13.1451 67.0691 13.1451C67.5679 13.1451 68.0428 13.2321 68.4791 13.4211C68.9153 13.6101 69.2652 13.8741 69.5392 14.2131L70.3625 13.3836C69.9888 12.9561 69.5138 12.6291 68.9287 12.3906C68.3421 12.1521 67.7302 12.0381 67.0691 12.0381C65.7708 12.0381 64.6735 12.4911 63.7757 13.3956C62.8764 14.3016 62.4282 15.4191 62.4282 16.7391C62.4282 18.0591 62.8764 19.1781 63.7757 20.0826C64.6735 20.9886 65.7708 21.4401 67.0691 21.4401C68.4284 21.4401 69.5138 21.0006 70.3506 20.1081C71.0861 19.3671 71.4613 18.3606 71.4613 17.1036C71.4613 16.8906 71.436 16.6641 71.3988 16.4256Z" fill="white"/>
<path d="M73.1081 12.2391V21.2391H78.3237V20.1336H74.256V17.2806H77.9231V16.1991H74.256V13.3461H78.3237V12.2391H73.1081Z" fill="white"/>
<path d="M85.6579 13.3461V12.2391H79.5192V13.3461H82.0146V21.2391H83.1625V13.3461H85.6579Z" fill="white"/>
<path d="M91.2485 12.2391H90.1006V21.2391H91.2485V12.2391Z" fill="white"/>
<path d="M98.8345 13.3461V12.2391H92.6958V13.3461H95.1912V21.2391H96.3391V13.3461H98.8345Z" fill="white"/>
<path d="M110.451 13.4091C109.565 12.4911 108.48 12.0381 107.181 12.0381C105.884 12.0381 104.798 12.4911 103.912 13.3956C103.026 14.2881 102.59 15.4071 102.59 16.7391C102.59 18.0726 103.026 19.1901 103.912 20.0826C104.798 20.9886 105.884 21.4401 107.181 21.4401C108.466 21.4401 109.565 20.9886 110.451 20.0826C111.337 19.1901 111.773 18.0726 111.773 16.7391C111.773 15.4191 111.337 14.3016 110.451 13.4091ZM104.736 14.1621C105.398 13.4841 106.208 13.1451 107.181 13.1451C108.155 13.1451 108.965 13.4841 109.614 14.1621C110.275 14.8296 110.6 15.6966 110.6 16.7391C110.6 17.7831 110.275 18.6501 109.614 19.3161C108.965 19.9956 108.155 20.3346 107.181 20.3346C106.208 20.3346 105.398 19.9956 104.736 19.3161C104.087 18.6381 103.763 17.7831 103.763 16.7391C103.763 15.6966 104.087 14.8416 104.736 14.1621Z" fill="white"/>
<path d="M114.53 15.6336L114.481 13.8981H114.53L119.073 21.2391H120.27V12.2391H119.122V17.5071L119.173 19.2411H119.122L114.781 12.2391H113.384V21.2391H114.53V15.6336Z" fill="white"/>
</g>
<defs>
<clipPath id="clip0_48_217">
<rect width="201" height="60" fill="white"/>
</clipPath>
</defs>
</svg>
