<svg width="156" height="137" viewBox="0 0 156 137" fill="none" xmlns="http://www.w3.org/2000/svg">
<path d="M19.5 0C14.3283 0 9.36838 2.05446 5.71142 5.71142C2.05446 9.36838 0 14.3283 0 19.5L0 97.5975C0.0257744 102.752 2.09161 107.687 5.74578 111.323C9.39995 114.959 14.3451 117 19.5 117H73.125C74.4179 117 75.6579 116.486 76.5721 115.572C77.4864 114.658 78 113.418 78 112.125C78 110.832 77.4864 109.592 76.5721 108.678C75.6579 107.764 74.4179 107.25 73.125 107.25H19.5C17.3538 107.25 15.2675 106.542 13.5646 105.236C11.8617 103.93 10.6374 102.098 10.0815 100.025L65.0715 66.183L78 73.9342L146.25 32.9842V63.375C146.25 64.6679 146.764 65.9079 147.678 66.8222C148.592 67.7364 149.832 68.25 151.125 68.25C152.418 68.25 153.658 67.7364 154.572 66.8222C155.486 65.9079 156 64.6679 156 63.375V19.5C156 14.3283 153.946 9.36838 150.289 5.71142C146.632 2.05446 141.672 0 136.5 0H19.5ZM55.653 60.528L9.75 88.7737V32.9842L55.653 60.528ZM9.75 21.6157V19.5C9.75 16.9141 10.7772 14.4342 12.6057 12.6057C14.4342 10.7772 16.9141 9.75 19.5 9.75H136.5C139.086 9.75 141.566 10.7772 143.394 12.6057C145.223 14.4342 146.25 16.9141 146.25 19.5V21.6157L78 62.5658L9.75 21.6157Z" fill="#EAEAEA"/>
<path d="M156 102.375C156 111.426 152.405 120.105 146.005 126.505C139.605 132.905 130.926 136.5 121.875 136.5C112.824 136.5 104.145 132.905 97.745 126.505C91.3453 120.105 87.75 111.426 87.75 102.375C87.75 93.3245 91.3453 84.6447 97.745 78.245C104.145 71.8453 112.824 68.25 121.875 68.25C130.926 68.25 139.605 71.8453 146.005 78.245C152.405 84.6447 156 93.3245 156 102.375ZM136.568 86.0048C136.019 85.6756 135.41 85.4578 134.777 85.364C134.143 85.2701 133.498 85.3019 132.877 85.4577C132.255 85.6134 131.671 85.89 131.157 86.2716C130.643 86.6532 130.209 87.1324 129.88 87.6818L118.472 106.694L113.139 101.361C112.224 100.446 110.982 99.9313 109.688 99.9313C108.393 99.9313 107.151 100.446 106.236 101.361C105.321 102.276 104.806 103.518 104.806 104.812C104.806 106.107 105.321 107.349 106.236 108.264L113.783 115.801C114.568 116.588 115.523 117.185 116.574 117.548C117.625 117.91 118.745 118.029 119.849 117.893C120.952 117.758 122.01 117.373 122.943 116.767C123.875 116.161 124.657 115.35 125.229 114.397L138.245 92.6932C138.574 92.144 138.792 91.5353 138.886 90.9018C138.98 90.2684 138.948 89.6227 138.792 89.0016C138.637 88.3805 138.36 87.7961 137.978 87.2819C137.597 86.7677 137.118 86.3337 136.568 86.0048Z" fill="#AFAFAF"/>
</svg>
