<svg width="209" height="192" viewBox="0 0 209 192" fill="none" xmlns="http://www.w3.org/2000/svg">
<line x1="14" y1="10.5" x2="196" y2="10.5" stroke="#EAEAEA" stroke-width="7"/>
<circle cx="12.5" cy="12.5" r="12.5" fill="#AFAFAF"/>
<circle cx="104.5" cy="12.5" r="12.5" fill="#EAEAEA"/>
<circle cx="196.5" cy="12.5" r="12.5" fill="#EAEAEA"/>
<rect y="101" width="108" height="35" rx="11" fill="#EAEAEA"/>
<path d="M12 111H44" stroke="#AFAFAF" stroke-width="3" stroke-linecap="round"/>
<rect y="143" width="191" height="49" rx="11" fill="#EAEAEA"/>
<path d="M15 160H147" stroke="#AFAFAF" stroke-width="3" stroke-linecap="round"/>
<path d="M15 168H92" stroke="#AFAFAF" stroke-width="3" stroke-linecap="round"/>
<path d="M15 176H92" stroke="#AFAFAF" stroke-width="3" stroke-linecap="round"/>
<rect y="46" width="197" height="31" rx="11" fill="#EAEAEA"/>
<g clip-path="url(#clip0_2049_978)">
<path d="M24.0081 63.6975C24.9159 62.4587 25.3225 60.9229 25.1465 59.3973C24.9706 57.8717 24.2251 56.4687 23.0591 55.4692C21.8932 54.4696 20.3929 53.9471 18.8583 54.0062C17.3237 54.0654 15.868 54.7017 14.7824 55.7881C13.6969 56.8744 13.0615 58.3305 13.0035 59.8652C12.9455 61.3998 13.469 62.8998 14.4694 64.065C15.4698 65.2302 16.8733 65.9747 18.3991 66.1496C19.9248 66.3244 21.4603 65.9168 22.6984 65.0081H22.6975C22.725 65.0456 22.7556 65.0815 22.7894 65.1159L26.3987 68.7253C26.5745 68.9012 26.813 69.0001 27.0617 69.0002C27.3104 69.0002 27.5489 68.9015 27.7248 68.7258C27.9007 68.55 27.9996 68.3115 27.9997 68.0628C27.9998 67.8141 27.9011 67.5756 27.7253 67.3997L24.1159 63.7903C24.0824 63.7563 24.0464 63.7259 24.0081 63.6975ZM24.25 60.0937C24.25 60.7709 24.1166 61.4413 23.8575 62.0669C23.5984 62.6925 23.2186 63.2609 22.7398 63.7397C22.261 64.2185 21.6925 64.5984 21.0669 64.8575C20.4414 65.1166 19.7709 65.25 19.0937 65.25C18.4166 65.25 17.7461 65.1166 17.1205 64.8575C16.4949 64.5984 15.9265 64.2185 15.4477 63.7397C14.9689 63.2609 14.5891 62.6925 14.33 62.0669C14.0709 61.4413 13.9375 60.7709 13.9375 60.0937C13.9375 58.7262 14.4807 57.4147 15.4477 56.4477C16.4147 55.4807 17.7262 54.9375 19.0937 54.9375C20.4613 54.9375 21.7728 55.4807 22.7398 56.4477C23.7067 57.4147 24.25 58.7262 24.25 60.0937Z" fill="#B7B6B6"/>
</g>
<defs>
<clipPath id="clip0_2049_978">
<rect width="15" height="15" fill="white" transform="translate(13 54)"/>
</clipPath>
</defs>
</svg>
