<svg width="252" height="220" viewBox="0 0 252 220" fill="none" xmlns="http://www.w3.org/2000/svg">
<rect width="204" height="90" rx="12" fill="#EAEAEA"/>
<path d="M62 21H120" stroke="#AFAFAF" stroke-width="3" stroke-linecap="round"/>
<path d="M62 28H81" stroke="#AFAFAF" stroke-width="3" stroke-linecap="round"/>
<path d="M62 54H177" stroke="#AFAFAF" stroke-width="3" stroke-linecap="round"/>
<path d="M62 62H177" stroke="#AFAFAF" stroke-width="3" stroke-linecap="round"/>
<path d="M62 70H177" stroke="#AFAFAF" stroke-width="3" stroke-linecap="round"/>
<g clip-path="url(#clip0_2049_1017)">
<path d="M37.0625 27.125C37.0625 28.8655 36.3711 30.5347 35.1404 31.7654C33.9097 32.9961 32.2405 33.6875 30.5 33.6875C28.7595 33.6875 27.0903 32.9961 25.8596 31.7654C24.6289 30.5347 23.9375 28.8655 23.9375 27.125C23.9375 25.3845 24.6289 23.7153 25.8596 22.4846C27.0903 21.2539 28.7595 20.5625 30.5 20.5625C32.2405 20.5625 33.9097 21.2539 35.1404 22.4846C36.3711 23.7153 37.0625 25.3845 37.0625 27.125Z" fill="#AFAFAF"/>
<path fill-rule="evenodd" clip-rule="evenodd" d="M13 31.5C13 26.8587 14.8437 22.4075 18.1256 19.1256C21.4075 15.8437 25.8587 14 30.5 14C35.1413 14 39.5925 15.8437 42.8744 19.1256C46.1563 22.4075 48 26.8587 48 31.5C48 36.1413 46.1563 40.5925 42.8744 43.8744C39.5925 47.1563 35.1413 49 30.5 49C25.8587 49 21.4075 47.1563 18.1256 43.8744C14.8437 40.5925 13 36.1413 13 31.5ZM30.5 16.1875C27.6164 16.1877 24.7914 17.002 22.3503 18.5369C19.9091 20.0718 17.9509 22.2648 16.7012 24.8635C15.4514 27.4623 14.9608 30.3611 15.2859 33.2263C15.611 36.0915 16.7386 38.8067 18.5388 41.0594C20.0919 38.5569 23.5109 35.875 30.5 35.875C37.4891 35.875 40.9059 38.5547 42.4613 41.0594C44.2614 38.8067 45.389 36.0915 45.7141 33.2263C46.0392 30.3611 45.5486 27.4623 44.2988 24.8635C43.0491 22.2648 41.0909 20.0718 38.6497 18.5369C36.2086 17.002 33.3836 16.1877 30.5 16.1875Z" fill="#AFAFAF"/>
</g>
<rect x="28.021" y="78" width="17" height="17" transform="rotate(45 28.021 78)" fill="#EAEAEA"/>
<rect width="204" height="90" rx="12" transform="matrix(-1 0 0 1 252 117)" fill="#EAEAEA"/>
<path d="M110 171H225" stroke="#AFAFAF" stroke-width="3" stroke-linecap="round"/>
<path d="M110 179H225" stroke="#AFAFAF" stroke-width="3" stroke-linecap="round"/>
<path d="M110 187H225" stroke="#AFAFAF" stroke-width="3" stroke-linecap="round"/>
<g clip-path="url(#clip1_2049_1017)">
<path d="M85.0625 144.125C85.0625 145.865 84.3711 147.535 83.1404 148.765C81.9097 149.996 80.2405 150.688 78.5 150.688C76.7595 150.688 75.0903 149.996 73.8596 148.765C72.6289 147.535 71.9375 145.865 71.9375 144.125C71.9375 142.385 72.6289 140.715 73.8596 139.485C75.0903 138.254 76.7595 137.562 78.5 137.562C80.2405 137.562 81.9097 138.254 83.1404 139.485C84.3711 140.715 85.0625 142.385 85.0625 144.125Z" fill="#AFAFAF"/>
<path fill-rule="evenodd" clip-rule="evenodd" d="M61 148.5C61 143.859 62.8437 139.408 66.1256 136.126C69.4075 132.844 73.8587 131 78.5 131C83.1413 131 87.5925 132.844 90.8744 136.126C94.1563 139.408 96 143.859 96 148.5C96 153.141 94.1563 157.592 90.8744 160.874C87.5925 164.156 83.1413 166 78.5 166C73.8587 166 69.4075 164.156 66.1256 160.874C62.8437 157.592 61 153.141 61 148.5ZM78.5 133.188C75.6164 133.188 72.7914 134.002 70.3503 135.537C67.9091 137.072 65.9509 139.265 64.7012 141.864C63.4514 144.462 62.9608 147.361 63.2859 150.226C63.611 153.092 64.7386 155.807 66.5388 158.059C68.0919 155.557 71.5109 152.875 78.5 152.875C85.4891 152.875 88.9059 155.555 90.4613 158.059C92.2614 155.807 93.389 153.092 93.7141 150.226C94.0392 147.361 93.5486 144.462 92.2988 141.864C91.0491 139.265 89.0909 137.072 86.6497 135.537C84.2086 134.002 81.3836 133.188 78.5 133.188Z" fill="#AFAFAF"/>
</g>
<rect width="17" height="17" transform="matrix(-0.707107 0.707107 0.707107 0.707107 223.979 195)" fill="#EAEAEA"/>
<path d="M110 138H168" stroke="#AFAFAF" stroke-width="3" stroke-linecap="round"/>
<path d="M129 145H110" stroke="#AFAFAF" stroke-width="3" stroke-linecap="round"/>
<defs>
<clipPath id="clip0_2049_1017">
<rect width="35" height="35" fill="white" transform="translate(13 14)"/>
</clipPath>
<clipPath id="clip1_2049_1017">
<rect width="35" height="35" fill="white" transform="translate(61 131)"/>
</clipPath>
</defs>
</svg>
